<?xml version="1.0" encoding="utf-8"?>
<!-- Generator: Adobe Illustrator 16.0.0, SVG Export Plug-In . SVG Version: 6.00 Build 0)  -->
<!DOCTYPE svg PUBLIC "-//W3C//DTD SVG 1.1//EN" "http://www.w3.org/Graphics/SVG/1.1/DTD/svg11.dtd">
<svg version="1.1" id="Layer_1" xmlns="http://www.w3.org/2000/svg" xmlns:xlink="http://www.w3.org/1999/xlink" x="0px" y="0px"
	 width="640px" height="480px" viewBox="0 0 640 480" enable-background="new 0 0 640 480" xml:space="preserve">
<path d="M513.848,185.96c-28.232,0-50.861,22.844-50.861,51.076v49.496H223.482v-49.496c0-28.231-22.614-51.076-50.846-51.076
	s-52.384,22.844-52.384,51.076c0,22.24,18.722,41.119,32.802,48.131v121.109h70.429v-14.08h239.504v14.08h70.431v-15.891V288.155
	v-2.987c14.094-7.012,32.813-25.891,32.813-48.131C566.23,208.805,542.094,185.96,513.848,185.96z M237.591,237.036v35.4h211.302
	v-35.4c0-37.585,28.863-68.131,66.435-68.131c0.849,0,0.819,0.115,1.651,0.13c-11.896-58.634-85.184-103.762-173.313-103.762
	s-161.188,45.128-173.084,103.762c0.833-0.015-0.158-0.13,0.689-0.13C208.856,168.906,237.591,199.451,237.591,237.036z"/>
</svg>
