<?xml version="1.0" encoding="utf-8"?>
<!-- Generator: Adobe Illustrator 16.0.0, SVG Export Plug-In . SVG Version: 6.00 Build 0)  -->
<!DOCTYPE svg PUBLIC "-//W3C//DTD SVG 1.1//EN" "http://www.w3.org/Graphics/SVG/1.1/DTD/svg11.dtd">
<svg version="1.1" id="Layer_1" xmlns="http://www.w3.org/2000/svg" xmlns:xlink="http://www.w3.org/1999/xlink" x="0px" y="0px"
	 width="640px" height="480px" viewBox="0 0 640 480" enable-background="new 0 0 640 480" xml:space="preserve">
<path d="M320.247,52.005c-103.652,0-187.682,84.028-187.682,187.676c0,103.642,84.027,187.682,187.682,187.682
	c103.643,0,187.671-84.04,187.671-187.682C507.918,136.034,423.889,52.005,320.247,52.005z M320.247,392.18
	c-84.226,0-152.493-68.284-152.493-152.498c0-84.208,68.268-152.487,152.493-152.487c84.214,0,152.487,68.279,152.487,152.487
	C472.734,323.896,404.461,392.18,320.247,392.18z M325.564,233.628l-5.317-117.106h-17.603l-5.862,129.027l95.381,87.079
	l12.453-12.441L325.564,233.628z"/>
</svg>
