<?xml version="1.0" encoding="utf-8"?>
<!-- Generator: Adobe Illustrator 16.0.0, SVG Export Plug-In . SVG Version: 6.00 Build 0)  -->
<!DOCTYPE svg PUBLIC "-//W3C//DTD SVG 1.1//EN" "http://www.w3.org/Graphics/SVG/1.1/DTD/svg11.dtd">
<svg version="1.1" id="Layer_1" xmlns="http://www.w3.org/2000/svg" xmlns:xlink="http://www.w3.org/1999/xlink" x="0px" y="0px"
	 width="640px" height="480px" viewBox="0 0 640 480" enable-background="new 0 0 640 480" xml:space="preserve">
<path d="M319.981,75.701c-60.947,0-110.352,49.41-110.352,110.374c0,60.946,49.404,110.358,110.352,110.358
	c60.969,0,110.351-49.412,110.351-110.358C430.332,125.112,380.95,75.701,319.981,75.701z M319.981,275.985
	c-32.645,0-60.025-26.183-68.031-48.228h136.063C380.021,249.803,352.646,275.985,319.981,275.985z M471.049,404.131
	c-19.055-44.104-46.563-77.88-79.198-97.805c-20.914,12.862-45.515,18.649-71.869,18.649c-26.347,0-50.956-4.947-71.869-17.84
	c-32.621,19.938-60.13,52.89-79.184,96.994L471.049,404.131L471.049,404.131z M424.096,258.745
	c-6.178,8.813-13.447,16.819-21.589,23.82c-1.453,2.158-2.834,4.407-4.168,6.746l2.22,0.689
	c5.981,3.658,11.692,11.258,17.226,11.258h137.29c-10.313-22.066-25.215-39.981-42.875-50.775
	c-11.317,6.973-24.631,11.199-38.918,11.199c-14.271,0-27.584-3.508-38.901-10.464C430.826,253.393,427.408,256.076,424.096,258.745
	z M473.281,127.833c-13.162,0-25.305,4.31-35.169,11.513c5.741,14.481,8.919,28.926,8.919,45.416c0,7.571-0.688,13.59-1.963,20.943
	h65.047c-4.316,22.052-19.144,27.41-36.834,27.41c-12.815,0-24.076-4.354-30.985-13.454c-1.425,5.066-3.134,10.313-5.157,15.089
	c10.06,7.652,22.547,12.42,36.144,12.42c32.996,0,59.771-26.67,59.771-59.666C533.053,154.503,506.277,127.833,473.281,127.833z
	 M202.951,235.411c-2.001-4.724-3.71-9.596-5.134-14.595c-6.941,8.755-17.99,12.301-30.575,12.301
	c-17.675,0-32.494-5.359-36.834-27.411h64.485c-1.268-7.354-1.949-13.373-1.949-20.943c0-16.633,3.229-31.834,9.055-46.383
	c-9.805-7.023-21.79-10.876-34.757-10.876c-32.996,0-59.748,26.917-59.748,59.913c0,33.003,26.752,59.837,59.748,59.837
	C180.659,247.254,192.99,242.861,202.951,235.411z M239.417,289.657l2.579-1.141c-1.034-1.799-2.114-3.328-3.192-5.037
	c-9.084-7.556-17.091-16.279-23.784-26.068c-2.871-2.228-5.816-4.28-8.867-6.154c-11.318,6.979-24.638,10.815-38.91,10.815
	c-14.264,0-27.577-4.526-38.895-11.498c-17.69,10.778-32.576,28.618-42.891,50.686h136.331
	C227.47,301.26,233.286,293.404,239.417,289.657z"/>
</svg>
