<?xml version="1.0" encoding="utf-8"?>
<!-- Generator: Adobe Illustrator 16.0.0, SVG Export Plug-In . SVG Version: 6.00 Build 0)  -->
<!DOCTYPE svg PUBLIC "-//W3C//DTD SVG 1.1//EN" "http://www.w3.org/Graphics/SVG/1.1/DTD/svg11.dtd">
<svg version="1.1" id="Layer_1" xmlns="http://www.w3.org/2000/svg" xmlns:xlink="http://www.w3.org/1999/xlink" x="0px" y="0px"
	 width="640px" height="480px" viewBox="0 0 640 480" enable-background="new 0 0 640 480" xml:space="preserve">
<path d="M305.665,342.15h-63.147v-9.711l31.856-30.895c4.117-4.707,6.535-8.621,8.2-11.742c1.659-3.121,2.259-6.074,2.259-8.849
	c0-3.706-1.085-6.698-3.007-8.969c-1.907-2.278-4.766-3.418-8.441-3.418c-4.083,0-7.154,1.525-9.19,4.201
	c-2.042,2.676-2.239,6.232-2.239,11.078h-19.437c0-9.711,3.903-15.021,9.166-20.393c5.251-5.352,12.326-8.541,21.497-8.541
	c9.062,0,16.229,2.636,21.219,7.192c5.009,4.538,7.506,10.723,7.506,18.589c0,5.292-1.388,10.087-4.172,14.389
	c-2.789,4.311-7.565,9.115-14.323,16.408l-16.602,16.081h38.856L305.665,342.15L305.665,342.15z M320.246,147.835h48.578v14.581
	h-48.578V147.835z M320.246,176.981h38.857v14.581h-38.857V176.981z M320.246,206.128h72.864v14.581h-72.864V206.128z
	 M320.246,269.281h58.288v14.566h-58.288V269.281z M320.246,298.434h48.578v14.564h-48.578V298.434z M320.246,327.573h72.864v14.576
	h-72.864V327.573z M286.244,220.709h-14.571v-68.015h-19.44v-12.192l34.012-7.233V220.709z M451.403,107.249V74.976H344.666
	l-102.148-30.9l-9.345,30.9h-44.089v145.757l-42.196,139.521l42.196,12.771v32.273h106.723l102.159,30.905l9.345-30.905h44.093
	V259.531l42.192-139.515L451.403,107.249z M189.084,357.797l-24.028-7.265l24.028-79.457V357.797z M252.257,62.243l42.073,12.732
	h-45.933L252.257,62.243z M388.245,418.031l-42.093-12.732h45.938L388.245,418.031z M431.982,385.867H208.515V94.401h223.467
	V385.867z M451.403,122.483l24.039,7.264l-24.039,79.448V122.483z"/>
</svg>
