<?xml version="1.0" encoding="utf-8"?>
<!-- Generator: Adobe Illustrator 16.0.0, SVG Export Plug-In . SVG Version: 6.00 Build 0)  -->
<!DOCTYPE svg PUBLIC "-//W3C//DTD SVG 1.1//EN" "http://www.w3.org/Graphics/SVG/1.1/DTD/svg11.dtd">
<svg version="1.1" id="Layer_1" xmlns="http://www.w3.org/2000/svg" xmlns:xlink="http://www.w3.org/1999/xlink" x="0px" y="0px"
	 width="640px" height="480px" viewBox="0 0 640 480" enable-background="new 0 0 640 480" xml:space="preserve">
<path d="M403.862,275.803l-13.489,47.139H296.11l-13.462-47.139h-87.561h-67.352v134.698c0,7.418,6.044,13.462,13.476,13.462
	h404.074c7.433,0,13.462-6.044,13.462-13.462V275.803H403.862z M342.705,174.809h-19.671v80.814h-53.876V46.822h53.876v80.814
	h13.806l45.759-80.814h60.086l-62.642,95.527l68.23,113.274h-58.945L342.705,174.809z M255.696,114.174h-26.952h-26.925
	l-74.083,141.449h54.082l47.255-107.78h26.623V114.174z M484.664,114.174h-26.926h-34.986l-18.834,28.628l3.049,5.041h50.771
	l46.926,107.78h54.083L484.664,114.174z"/>
</svg>
