<?xml version="1.0" encoding="utf-8"?>
<!-- Generator: Adobe Illustrator 16.0.0, SVG Export Plug-In . SVG Version: 6.00 Build 0)  -->
<!DOCTYPE svg PUBLIC "-//W3C//DTD SVG 1.1//EN" "http://www.w3.org/Graphics/SVG/1.1/DTD/svg11.dtd">
<svg version="1.1" id="Layer_1" xmlns="http://www.w3.org/2000/svg" xmlns:xlink="http://www.w3.org/1999/xlink" x="0px" y="0px"
	 width="502.441px" height="116.242px" viewBox="0 0 502.441 116.242" enable-background="new 0 0 502.441 116.242"
	 xml:space="preserve">
<path d="M0,102.3l11.964-17.618c6.313,6.313,16.043,11.566,28.143,11.566c7.625,0,12.36-2.626,12.36-6.962
	c0-11.576-49.573-1.979-49.573-35.77c0-14.728,12.359-27.876,34.847-27.876c14.068,0,26.297,4.208,35.635,12.229L61.015,54.831
	c-7.365-6.18-16.963-9.207-25.642-9.207c-6.577,0-9.469,2.235-9.469,6.049c0,10.782,49.575,2.629,49.575,35.241
	c0,17.619-13.021,29.326-36.558,29.326C21.17,116.242,8.81,110.587,0,102.3z M28.664,18.932L16.437,0h12.096l8.943,10.65L46.154,0
	H58.25L46.417,18.932H28.664z M137.542,114.661L114.53,81.652l-5.918,7.365v25.644H85.997V26.954h22.615v36.028l26.957-36.028
	h27.879l-34.06,41.028l35.897,46.68L137.542,114.661L137.542,114.661z M161.741,70.873c0-26.694,20.117-45.364,46.942-45.364
	c26.824,0,46.811,18.669,46.811,45.364c0,26.695-19.985,45.369-46.811,45.369C181.857,116.242,161.741,97.566,161.741,70.873z
	 M232.482,70.873c0-14.333-9.335-25.378-23.799-25.378c-14.466,0-23.932,11.044-23.932,25.378c0,14.199,9.466,25.375,23.932,25.375
	C223.147,96.248,232.482,85.072,232.482,70.873z M266.544,114.661V26.954h22.612v67.985H324.4v19.722H266.544z M395.542,114.661
	l-4.342-12.623h-34.584l-4.337,12.623h-25.645l33.01-87.708h28.531l33.004,87.708H395.542z M375.95,18.932h-13.68L378.967,0h17.889
	L375.95,18.932z M373.971,49.309l-11.177,33.003h22.225L373.971,49.309z M476.541,114.661l-14.725-29.455h-11.573v29.455H427.63
	V26.954h43.916c19.464,0,30.505,12.886,30.505,29.192c0,15.252-9.203,23.407-17.49,26.301l17.882,32.215L476.541,114.661
	L476.541,114.661z M454.843,18.932L442.616,0h12.099l8.94,10.65L472.334,0h12.098l-11.835,18.932H454.843z M479.039,56.015
	c0-6.049-4.861-9.335-10.914-9.335h-17.882v18.804h17.882C474.177,65.482,479.039,62.193,479.039,56.015z"/>
</svg>
