<?xml version="1.0" encoding="utf-8"?>
<!-- Generator: Adobe Illustrator 16.0.0, SVG Export Plug-In . SVG Version: 6.00 Build 0)  -->
<!DOCTYPE svg PUBLIC "-//W3C//DTD SVG 1.1//EN" "http://www.w3.org/Graphics/SVG/1.1/DTD/svg11.dtd">
<svg version="1.1" id="Layer_1" xmlns="http://www.w3.org/2000/svg" xmlns:xlink="http://www.w3.org/1999/xlink" x="0px" y="0px"
	 width="287.202px" height="66.445px" viewBox="101.22 23.418 287.202 66.445"
	 enable-background="new 101.22 23.418 287.202 66.445" xml:space="preserve">
<path d="M101.22,81.894l6.839-10.07c3.609,3.608,9.17,6.611,16.087,6.611c4.358,0,7.065-1.501,7.065-3.979
	c0-6.617-28.336-1.132-28.336-20.447c0-8.418,7.064-15.934,19.919-15.934c8.042,0,15.032,2.405,20.369,6.99l-7.065,9.695
	c-4.21-3.533-9.696-5.263-14.657-5.263c-3.76,0-5.413,1.278-5.413,3.458c0,6.164,28.338,1.503,28.338,20.144
	c0,10.071-7.443,16.764-20.897,16.764C113.322,89.863,106.257,86.631,101.22,81.894z M117.605,34.24l-6.989-10.822h6.914
	l5.112,6.087l4.96-6.087h6.914l-6.764,10.822H117.605z M179.841,88.96l-13.154-18.868l-3.383,4.21V88.96h-12.927V38.825h12.927
	v20.594l15.409-20.594h15.936L175.18,62.277l20.519,26.683H179.841L179.841,88.96z M193.674,63.93
	c0-15.258,11.499-25.93,26.833-25.93c15.333,0,26.758,10.671,26.758,25.93c0,15.26-11.424,25.934-26.758,25.934
	S193.674,79.188,193.674,63.93z M234.11,63.93c0-8.193-5.336-14.506-13.604-14.506c-8.269,0-13.68,6.313-13.68,14.506
	c0,8.116,5.411,14.505,13.68,14.505C228.774,78.435,234.11,72.046,234.11,63.93z M253.58,88.96V38.825h12.926v38.861h20.146V88.96
	H253.58z M327.316,88.96l-2.481-7.216h-19.769l-2.479,7.216h-14.66l18.87-50.135h16.308l18.866,50.135H327.316z M316.118,34.24
	h-7.819l9.543-10.822h10.227L316.118,34.24z M314.987,51.604l-6.39,18.865h12.704L314.987,51.604z M373.617,88.96L365.2,72.123
	h-6.615V88.96h-12.926V38.825h25.103c11.126,0,17.438,7.366,17.438,16.687c0,8.719-5.261,13.38-9.998,15.034l10.222,18.414H373.617
	L373.617,88.96z M361.215,34.24l-6.99-10.822h6.917l5.109,6.087l4.962-6.087h6.915l-6.766,10.822H361.215z M375.045,55.437
	c0-3.458-2.778-5.336-6.239-5.336h-10.221V60.85h10.221C372.265,60.849,375.045,58.969,375.045,55.437z"/>
</svg>
