<?xml version="1.0" encoding="utf-8"?>
<!-- Generator: Adobe Illustrator 16.0.0, SVG Export Plug-In . SVG Version: 6.00 Build 0)  -->
<!DOCTYPE svg PUBLIC "-//W3C//DTD SVG 1.1//EN" "http://www.w3.org/Graphics/SVG/1.1/DTD/svg11.dtd">
<svg version="1.1" id="Layer_1" xmlns="http://www.w3.org/2000/svg" xmlns:xlink="http://www.w3.org/1999/xlink" x="0px" y="0px"
	 width="640px" height="480px" viewBox="0 0 640 480" enable-background="new 0 0 640 480" xml:space="preserve">
<path d="M417.393,86.287V63.418H377.39v22.869H257.388V63.418h-39.997v22.869h-80.005V417.7h365.711V86.287H417.393z
	 M480.24,394.845H160.242V109.138h57.148v17.14h39.997v-17.14H377.39v17.14h40.003v-17.14h62.848L480.24,394.845L480.24,394.845z
	 M188.816,309.14h51.425v51.426h-51.425V309.14z M325.952,309.14h51.438v51.426h-51.438V309.14z M257.388,309.14h51.425v51.426
	h-51.425V309.14z M394.523,234.846h51.426v51.438h-51.426V234.846z M394.523,160.563h51.426v51.432h-51.426V160.563z
	 M188.816,234.846h51.425v51.438h-51.425V234.846z M257.388,160.563h51.425v51.432h-51.425V160.563z M325.952,160.563h51.438v51.432
	h-51.438V160.563z M377.39,234.846h-51.438v51.438h51.438V234.846L377.39,234.846z M308.813,234.846h-51.425v51.438h51.425V234.846
	L308.813,234.846z"/>
</svg>
