<?xml version="1.0" encoding="utf-8"?>
<!-- Generator: Adobe Illustrator 16.0.0, SVG Export Plug-In . SVG Version: 6.00 Build 0)  -->
<!DOCTYPE svg PUBLIC "-//W3C//DTD SVG 1.1//EN" "http://www.w3.org/Graphics/SVG/1.1/DTD/svg11.dtd">
<svg version="1.1" id="Layer_1" xmlns="http://www.w3.org/2000/svg" xmlns:xlink="http://www.w3.org/1999/xlink" x="0px" y="0px"
	 width="640px" height="480px" viewBox="0 0 640 480" enable-background="new 0 0 640 480" xml:space="preserve">
<path d="M164.021,95.672h-31.8v32.078v80.714v11.553v34.572v83.248h31.8c82.816,0,147.891,15.585,147.891,37.862V254.59v-46.125
	V127.75C311.912,105.44,246.838,95.672,164.021,95.672z M475.421,95.672h31.807v32.078v80.714v11.553v34.572v83.248h-31.807
	c-82.818,0-147.876,15.585-147.876,37.862V254.59v-46.125V127.75C327.545,105.44,392.602,95.672,475.421,95.672z M291.506,376.881
	c-5.537-4.56-28.174-14.151-95.63-17.021c-9.696-0.414-20.302,1.435-31.854,1.435H108.78V119.081H77.538v265.64h221.091
	C296.853,384.721,294.446,379.303,291.506,376.881z M530.652,119.081v242.214h-55.231c-11.569,0-22.15-1.242-31.841-0.828
	c-67.455,2.868-90.1,12.557-95.646,17.146c-2.934,2.422-5.354,7.107-7.141,7.107h221.107V119.08L530.652,119.081L530.652,119.081z"
	/>
</svg>
